<svg id="Layer_1" viewBox="0 0 24 24" xmlns="http://www.w3.org/2000/svg" data-name="Layer 1"><path d="m18.998 21.285c.022.275-.183.517-.458.539-1.465.117-2.992.177-4.54.177-6.243 0-10.139-.946-11.185-1.236-.153-.042-.276-.155-.333-.304-.152-.398-1.482-4.043-1.482-9.46 0-.524.013-1.032.036-1.523.012-.275.243-.495.522-.476.275.013.489.247.476.523-.021.476-.034.968-.034 1.477 0 4.626 1.024 7.967 1.332 8.867 1.298.337 4.973 1.133 10.668 1.133 1.521 0 3.022-.059 4.46-.174.27-.016.517.183.538.458zm4.002-10.785c0 4.43-.667 7.15-.695 7.264-.043.171-.173.308-.343.358-.12.036-3.007.878-8.462.878s-8.342-.842-8.462-.878c-.17-.05-.3-.187-.343-.358-.028-.114-.695-2.834-.695-7.264 0-4.583.669-7.164.697-7.271.045-.168.174-.301.341-.351.12-.036 3.007-.878 8.462-.878s8.342.842 8.462.878c.17.05.3.187.343.358.028.114.695 2.834.695 7.264zm-17.399 6.73c.841-1.13 1.787-2.141 2.449-2.817 3.552-3.626 7.186-5.04 8.214-5.386.125-.042.258-.034.377.023 1.147.552 3.255 1.737 5.295 3.73.039-.698.065-1.457.065-2.28 0-3.496-.437-5.935-.603-6.736-.839-.204-3.544-.764-7.897-.764s-7.065.562-7.9.765c-.167.775-.6 3.134-.6 6.735 0 3.488.434 5.923.601 6.73zm15.796.007c.1-.484.299-1.575.44-3.128-2.009-2.16-4.202-3.449-5.446-4.068-1.18.423-4.427 1.804-7.627 5.072-.567.58-1.35 1.414-2.081 2.347 1.335.241 3.628.541 6.817.541 4.354 0 7.059-.56 7.897-.764zm-13.397-10.237c0-1.346.654-2 2-2s2 .654 2 2-.654 2-2 2-2-.654-2-2zm1 0c0 .794.206 1 1 1s1-.206 1-1-.206-1-1-1-1 .206-1 1z"/></svg>